<svg xmlns="http://www.w3.org/2000/svg" xmlns:xlink="http://www.w3.org/1999/xlink" width="110" zoomAndPan="magnify" viewBox="0 0 82.5 30.000001" height="40" preserveAspectRatio="xMidYMid meet" version="1.0"><defs><g/><clipPath id="b12cee1140"><path d="M 2 0 L 6 0 L 6 4 L 2 4 Z M 2 0 " clip-rule="nonzero"/></clipPath><clipPath id="ab1d3e749b"><path d="M 6.003906 3.203125 L 2.332031 3.113281 L 2.410156 -0.0507812 L 6.078125 0.0390625 Z M 6.003906 3.203125 " clip-rule="nonzero"/></clipPath><clipPath id="efe77e5f13"><path d="M 6.003906 3.203125 L 2.332031 3.113281 L 2.410156 -0.0507812 L 6.078125 0.0390625 Z M 6.003906 3.203125 " clip-rule="nonzero"/></clipPath><clipPath id="96db3e8610"><path d="M 5.886719 3.199219 L 2.453125 3.117188 L 2.527344 0.00390625 L 5.960938 0.0859375 Z M 5.886719 3.199219 " clip-rule="nonzero"/></clipPath><clipPath id="ff9ce68ff5"><path d="M 0.0234375 1.84375 L 12.171875 1.84375 L 12.171875 14.117188 L 0.0234375 14.117188 Z M 0.0234375 1.84375 " clip-rule="nonzero"/></clipPath><clipPath id="2ad28d7679"><path d="M 0.0117188 1 L 8.460938 1 L 8.460938 10 L 0.0117188 10 Z M 0.0117188 1 " clip-rule="nonzero"/></clipPath><clipPath id="50376b894e"><path d="M 17.320312 4 L 32.296875 4 L 32.296875 15 L 17.320312 15 Z M 17.320312 4 " clip-rule="nonzero"/></clipPath><clipPath id="f0b955218e"><path d="M 22 5 L 28.628906 5 L 28.628906 11 L 22 11 Z M 22 5 " clip-rule="nonzero"/></clipPath><clipPath id="5e5d850ebf"><path d="M 2 4 L 8 4 L 8 9 L 2 9 Z M 2 4 " clip-rule="nonzero"/></clipPath><clipPath id="788eaecad8"><path d="M 7.824219 3.992188 L 7.503906 9.296875 L 1.695312 8.949219 L 2.011719 3.644531 Z M 7.824219 3.992188 " clip-rule="nonzero"/></clipPath><clipPath id="9857b57654"><path d="M 7.824219 3.992188 L 7.503906 9.296875 L 1.695312 8.949219 L 2.011719 3.644531 Z M 7.824219 3.992188 " clip-rule="nonzero"/></clipPath><clipPath id="5381e0969d"><path d="M 23 7 L 27 7 L 27 11 L 23 11 Z M 23 7 " clip-rule="nonzero"/></clipPath><clipPath id="ec298492d5"><path d="M 27.621094 6.40625 L 27.351562 10.957031 L 22.421875 10.660156 L 22.695312 6.113281 Z M 27.621094 6.40625 " clip-rule="nonzero"/></clipPath><clipPath id="80402ca6de"><path d="M 27.621094 6.40625 L 27.351562 10.957031 L 22.421875 10.660156 L 22.695312 6.113281 Z M 27.621094 6.40625 " clip-rule="nonzero"/></clipPath><clipPath id="8c87a8971f"><path d="M 10.308594 2 L 20.6875 2 L 20.6875 15.953125 L 10.308594 15.953125 Z M 10.308594 2 " clip-rule="nonzero"/></clipPath><clipPath id="89c78088ff"><path d="M 11 4 L 19.421875 4 L 19.421875 12 L 11 12 Z M 11 4 " clip-rule="nonzero"/></clipPath><clipPath id="acab683672"><path d="M 13 6 L 18 6 L 18 12 L 13 12 Z M 13 6 " clip-rule="nonzero"/></clipPath><clipPath id="fa9d43905c"><path d="M 18.410156 6.070312 L 18.078125 11.628906 L 12.015625 11.265625 L 12.347656 5.707031 Z M 18.410156 6.070312 " clip-rule="nonzero"/></clipPath><clipPath id="d24c8fc750"><path d="M 18.410156 6.070312 L 18.078125 11.628906 L 12.015625 11.265625 L 12.347656 5.707031 Z M 18.410156 6.070312 " clip-rule="nonzero"/></clipPath><clipPath id="2a5d76d831"><path d="M 17 2 L 19 2 L 19 4 L 17 4 Z M 17 2 " clip-rule="nonzero"/></clipPath><clipPath id="7df0abb7d6"><path d="M 18.667969 2.535156 L 18.601562 3.671875 L 17.335938 3.59375 L 17.40625 2.457031 Z M 18.667969 2.535156 " clip-rule="nonzero"/></clipPath><clipPath id="8371ac2756"><path d="M 18.667969 2.535156 L 18.601562 3.671875 L 17.335938 3.59375 L 17.40625 2.457031 Z M 18.667969 2.535156 " clip-rule="nonzero"/></clipPath><clipPath id="07e4d8998d"><path d="M 15 1 L 17 1 L 17 3 L 15 3 Z M 15 1 " clip-rule="nonzero"/></clipPath><clipPath id="09685f8b21"><path d="M 16.484375 1.675781 L 16.417969 2.8125 L 15.15625 2.734375 L 15.222656 1.597656 Z M 16.484375 1.675781 " clip-rule="nonzero"/></clipPath><clipPath id="9af5e7176d"><path d="M 16.484375 1.675781 L 16.417969 2.8125 L 15.15625 2.734375 L 15.222656 1.597656 Z M 16.484375 1.675781 " clip-rule="nonzero"/></clipPath><clipPath id="c1b9f3816f"><path d="M 13 2 L 15 2 L 15 4 L 13 4 Z M 13 2 " clip-rule="nonzero"/></clipPath><clipPath id="6d70c7ec45"><path d="M 14.285156 2.265625 L 14.214844 3.40625 L 12.953125 3.328125 L 13.019531 2.191406 Z M 14.285156 2.265625 " clip-rule="nonzero"/></clipPath><clipPath id="66ff46cf57"><path d="M 14.285156 2.265625 L 14.214844 3.40625 L 12.953125 3.328125 L 13.019531 2.191406 Z M 14.285156 2.265625 " clip-rule="nonzero"/></clipPath><clipPath id="c72b21517c"><path d="M 5 8 L 10 8 L 10 13 L 5 13 Z M 5 8 " clip-rule="nonzero"/></clipPath><clipPath id="7c61f8cd27"><path d="M 5.609375 9.492188 L 9.164062 8.578125 L 10.046875 12.007812 L 6.492188 12.921875 Z M 5.609375 9.492188 " clip-rule="nonzero"/></clipPath><clipPath id="966255a7fb"><path d="M 5.609375 9.492188 L 9.164062 8.578125 L 10.046875 12.007812 L 6.492188 12.921875 Z M 5.609375 9.492188 " clip-rule="nonzero"/></clipPath><clipPath id="6f7ddf28aa"><path d="M 6 10 L 10 10 L 10 13 L 6 13 Z M 6 10 " clip-rule="nonzero"/></clipPath><clipPath id="d6f3534169"><path d="M 6.246094 10.539062 L 9.796875 9.621094 L 10.585938 12.6875 L 7.03125 13.601562 Z M 6.246094 10.539062 " clip-rule="nonzero"/></clipPath><clipPath id="84fd3bf9b0"><path d="M 6.246094 10.539062 L 9.796875 9.621094 L 10.585938 12.6875 L 7.03125 13.601562 Z M 6.246094 10.539062 " clip-rule="nonzero"/></clipPath><clipPath id="5037e49d50"><path d="M 25 11 L 28 11 L 28 14 L 25 14 Z M 25 11 " clip-rule="nonzero"/></clipPath><clipPath id="f9ede9094b"><path d="M 25.417969 10.824219 L 28.257812 11.46875 L 27.835938 13.320312 L 24.996094 12.675781 Z M 25.417969 10.824219 " clip-rule="nonzero"/></clipPath><clipPath id="f4b530b846"><path d="M 25.417969 10.824219 L 28.257812 11.46875 L 27.835938 13.320312 L 24.996094 12.675781 Z M 25.417969 10.824219 " clip-rule="nonzero"/></clipPath><clipPath id="e9ee3e81f9"><path d="M 13.648438 12.84375 L 17.445312 12.84375 L 17.445312 14.742188 L 13.648438 14.742188 Z M 13.648438 12.84375 " clip-rule="nonzero"/></clipPath><clipPath id="4f5819365e"><path d="M 14.417969 12.902344 L 16.570312 12.902344 L 16.570312 14 L 14.417969 14 Z M 14.417969 12.902344 " clip-rule="nonzero"/></clipPath><clipPath id="b436db3844"><path d="M 25 11 L 27 11 L 27 13 L 25 13 Z M 25 11 " clip-rule="nonzero"/></clipPath><clipPath id="6aea110ad7"><path d="M 25.421875 11.941406 L 26.539062 11.71875 L 26.636719 12.214844 L 25.519531 12.4375 Z M 25.421875 11.941406 " clip-rule="nonzero"/></clipPath><clipPath id="abd7b1aa1d"><path d="M 25.421875 11.941406 L 26.539062 11.71875 L 26.636719 12.214844 L 25.519531 12.4375 Z M 25.421875 11.941406 " clip-rule="nonzero"/></clipPath><clipPath id="24cb49a856"><path d="M 26 11 L 28 11 L 28 13 L 26 13 Z M 26 11 " clip-rule="nonzero"/></clipPath><clipPath id="3576ca6c9f"><path d="M 26.199219 11.988281 L 27.21875 11.476562 L 27.445312 11.925781 L 26.429688 12.441406 Z M 26.199219 11.988281 " clip-rule="nonzero"/></clipPath><clipPath id="61264ec479"><path d="M 26.199219 11.988281 L 27.21875 11.476562 L 27.445312 11.925781 L 26.429688 12.441406 Z M 26.199219 11.988281 " clip-rule="nonzero"/></clipPath><clipPath id="f73cd1ab40"><path d="M 23 3 L 28 3 L 28 5 L 23 5 Z M 23 3 " clip-rule="nonzero"/></clipPath><clipPath id="9eeaef5600"><path d="M 23.757812 5.414062 L 23.480469 3.792969 L 27.722656 3.066406 L 28 4.6875 Z M 23.757812 5.414062 " clip-rule="nonzero"/></clipPath><clipPath id="b7311c0e28"><path d="M 23.757812 5.414062 L 23.480469 3.792969 L 27.722656 3.066406 L 28 4.6875 Z M 23.757812 5.414062 " clip-rule="nonzero"/></clipPath><clipPath id="72ac65ee68"><rect x="0" width="33" y="0" height="17"/></clipPath><clipPath id="5518354eec"><path d="M 15 13 L 66 13 L 66 29.03125 L 15 29.03125 Z M 15 13 " clip-rule="nonzero"/></clipPath><clipPath id="22970f8f77"><rect x="0" width="51" y="0" height="17"/></clipPath></defs><g transform="matrix(1, 0, 0, 1, 25, 0.000000000000005692)"><g clip-path="url(#72ac65ee68)"><g clip-path="url(#b12cee1140)"><g clip-path="url(#ab1d3e749b)"><g clip-path="url(#efe77e5f13)"><g clip-path="url(#96db3e8610)"><path fill="#8c52ff" d="M 2.878906 1.601562 C 1.828125 0.640625 3.210938 -0.238281 4.4375 0.117188 C 5.664062 0.476562 5.941406 0.835938 5.921875 1.675781 C 5.902344 2.519531 5.203125 3.183594 4.363281 3.164062 C 3.523438 3.140625 3.925781 2.566406 2.878906 1.601562 " fill-opacity="1" fill-rule="nonzero"/></g></g></g></g><g clip-path="url(#ff9ce68ff5)"><path fill="#feb823" d="M 0.292969 1.84375 C 0.183594 1.84375 0.0976562 1.933594 0.0976562 2.039062 C 0.0976562 2.039062 0.0976562 2.042969 0.0976562 2.042969 C 0.105469 2.867188 0.144531 6.117188 0.09375 9.085938 C 0.03125 12.523438 0.402344 14.121094 0.402344 14.121094 L 11.632812 14.121094 C 11.632812 14.121094 12.125 10.683594 12.003906 8.042969 C 11.878906 5.402344 12.003906 3.5 11.574219 2.703125 C 11.144531 1.90625 5.925781 1.964844 4.390625 1.90625 C 3.105469 1.851562 0.957031 1.847656 0.292969 1.84375 Z M 0.292969 1.84375 " fill-opacity="1" fill-rule="nonzero"/></g><g clip-path="url(#2ad28d7679)"><path fill="#ffffff" d="M 7.652344 3.507812 C 8.40625 5.226562 8.105469 6.984375 7.183594 7.933594 C 6.265625 8.878906 3.664062 10.738281 1.507812 7.355469 C -0.648438 3.972656 4.097656 0.878906 6.230469 2.1875 C 7.546875 2.992188 7.652344 3.507812 7.652344 3.507812 Z M 7.652344 3.507812 " fill-opacity="1" fill-rule="nonzero"/></g><g clip-path="url(#50376b894e)"><path fill="#f9643f" d="M 19.230469 6.449219 C 17.828125 8.214844 17.324219 11.253906 19.230469 13.234375 C 21.140625 15.210938 24.304688 14.433594 26.539062 14.789062 C 28.777344 15.140625 31.53125 15.140625 32.097656 12.03125 C 32.664062 8.921875 31.320312 8.144531 27.5 5.953125 C 23.679688 3.757812 21.917969 3.054688 19.230469 6.449219 Z M 19.230469 6.449219 " fill-opacity="1" fill-rule="nonzero"/></g><g clip-path="url(#f0b955218e)"><path fill="#ffffff" d="M 27.972656 6.371094 C 28.570312 7.726562 28.332031 9.117188 27.605469 9.867188 C 26.878906 10.613281 24.820312 12.085938 23.117188 9.410156 C 21.417969 6.738281 25.164062 4.296875 26.847656 5.328125 C 27.890625 5.964844 27.972656 6.371094 27.972656 6.371094 Z M 27.972656 6.371094 " fill-opacity="1" fill-rule="nonzero"/></g><g clip-path="url(#5e5d850ebf)"><g clip-path="url(#788eaecad8)"><g clip-path="url(#9857b57654)"><path fill="#343434" d="M 6 8.738281 C 4.972656 9.117188 3.960938 8.878906 3.4375 8.3125 C 2.917969 7.742188 1.925781 6.160156 3.972656 5.023438 C 6.019531 3.882812 7.65625 6.757812 6.820312 7.953125 C 6.304688 8.695312 6 8.738281 6 8.738281 Z M 6 8.738281 " fill-opacity="1" fill-rule="nonzero"/></g></g></g><g clip-path="url(#5381e0969d)"><g clip-path="url(#ec298492d5)"><g clip-path="url(#80402ca6de)"><path fill="#343434" d="M 26.042969 10.523438 C 25.152344 10.855469 24.273438 10.648438 23.820312 10.15625 C 23.371094 9.660156 22.507812 8.289062 24.285156 7.300781 C 26.058594 6.316406 27.480469 8.808594 26.753906 9.84375 C 26.304688 10.488281 26.042969 10.523438 26.042969 10.523438 Z M 26.042969 10.523438 " fill-opacity="1" fill-rule="nonzero"/></g></g></g><g clip-path="url(#8c87a8971f)"><path fill="#8c52ff" d="M 10.503906 15.550781 C 10.503906 15.550781 11.082031 15.84375 13.925781 15.890625 C 16.773438 15.9375 18.699219 15.796875 19.421875 15.722656 C 20.148438 15.648438 20.4375 15.550781 20.4375 15.550781 C 20.4375 15.550781 20.726562 8.589844 20.4375 7.175781 C 20.148438 5.765625 19.378906 3.4375 16.917969 2.671875 C 14.457031 1.90625 13.925781 2.558594 12.675781 3.582031 C 11.421875 4.609375 10.3125 11.109375 10.359375 13.089844 C 10.410156 15.070312 10.503906 15.550781 10.503906 15.550781 Z M 10.503906 15.550781 " fill-opacity="1" fill-rule="nonzero"/></g><g clip-path="url(#89c78088ff)"><path fill="#ffffff" d="M 18.609375 5.683594 C 19.363281 7.398438 19.0625 9.15625 18.144531 10.105469 C 17.222656 11.050781 14.621094 12.914062 12.464844 9.527344 C 10.308594 6.144531 15.054688 3.054688 17.1875 4.359375 C 18.503906 5.167969 18.609375 5.683594 18.609375 5.683594 Z M 18.609375 5.683594 " fill-opacity="1" fill-rule="nonzero"/></g><g clip-path="url(#acab683672)"><g clip-path="url(#fa9d43905c)"><g clip-path="url(#d24c8fc750)"><path fill="#343434" d="M 16.488281 11.085938 C 15.402344 11.484375 14.332031 11.234375 13.78125 10.632812 C 13.234375 10.035156 12.183594 8.363281 14.347656 7.160156 C 16.507812 5.960938 18.234375 8.992188 17.351562 10.257812 C 16.808594 11.039062 16.488281 11.085938 16.488281 11.085938 Z M 16.488281 11.085938 " fill-opacity="1" fill-rule="nonzero"/></g></g></g><g clip-path="url(#2a5d76d831)"><g clip-path="url(#7df0abb7d6)"><g clip-path="url(#8371ac2756)"><path fill="#ffb100" d="M 18.285156 3.53125 C 18.070312 3.613281 17.855469 3.5625 17.746094 3.441406 C 17.636719 3.324219 17.425781 2.988281 17.859375 2.75 C 18.289062 2.511719 18.632812 3.117188 18.457031 3.367188 C 18.347656 3.523438 18.285156 3.53125 18.285156 3.53125 Z M 18.285156 3.53125 " fill-opacity="1" fill-rule="nonzero"/></g></g></g><g clip-path="url(#07e4d8998d)"><g clip-path="url(#09685f8b21)"><g clip-path="url(#9af5e7176d)"><path fill="#ffb100" d="M 16.101562 2.675781 C 15.886719 2.753906 15.671875 2.703125 15.5625 2.585938 C 15.453125 2.464844 15.246094 2.132812 15.675781 1.890625 C 16.105469 1.652344 16.449219 2.257812 16.273438 2.507812 C 16.167969 2.664062 16.101562 2.675781 16.101562 2.675781 Z M 16.101562 2.675781 " fill-opacity="1" fill-rule="nonzero"/></g></g></g><g clip-path="url(#c1b9f3816f)"><g clip-path="url(#6d70c7ec45)"><g clip-path="url(#66ff46cf57)"><path fill="#ffb100" d="M 13.902344 3.265625 C 13.683594 3.347656 13.472656 3.296875 13.363281 3.175781 C 13.253906 3.058594 13.042969 2.722656 13.472656 2.484375 C 13.90625 2.246094 14.25 2.851562 14.074219 3.101562 C 13.964844 3.257812 13.902344 3.265625 13.902344 3.265625 Z M 13.902344 3.265625 " fill-opacity="1" fill-rule="nonzero"/></g></g></g><g clip-path="url(#c72b21517c)"><g clip-path="url(#7c61f8cd27)"><g clip-path="url(#966255a7fb)"><path fill="#343434" d="M 5.921875 9.886719 C 5.921875 9.886719 6.660156 9.53125 7.160156 9.300781 C 7.664062 9.066406 8.886719 8.648438 9.089844 8.636719 C 9.089844 8.636719 9.207031 8.773438 9.285156 9.398438 C 9.363281 10.019531 9.578125 11.667969 9.578125 11.667969 C 9.578125 11.667969 8.5625 12.242188 7.996094 12.453125 C 7.425781 12.660156 7.253906 12.640625 7.253906 12.640625 C 7.253906 12.640625 5.765625 10.09375 5.921875 9.886719 Z M 5.921875 9.886719 " fill-opacity="1" fill-rule="nonzero"/></g></g></g><g clip-path="url(#6f7ddf28aa)"><g clip-path="url(#d6f3534169)"><g clip-path="url(#84fd3bf9b0)"><path fill="#f9643f" d="M 9.40625 10.933594 C 9.125 10.582031 8.582031 10.03125 7.621094 10.691406 C 6.660156 11.355469 6.523438 11.625 7.324219 12.398438 C 8.125 13.175781 10.488281 12.304688 9.40625 10.933594 " fill-opacity="1" fill-rule="nonzero"/></g></g></g><g clip-path="url(#5037e49d50)"><g clip-path="url(#f9ede9094b)"><g clip-path="url(#f4b530b846)"><path fill="#343434" d="M 25.71875 12.792969 C 25.328125 12.773438 25.03125 12.527344 25.203125 12.191406 C 25.375 11.855469 26.199219 12.042969 26.566406 11.882812 C 26.9375 11.722656 27.726562 11.351562 27.863281 12.023438 C 27.996094 12.695312 27.695312 13.25 27.144531 13.132812 C 26.597656 13.015625 25.71875 12.792969 25.71875 12.792969 Z M 25.71875 12.792969 " fill-opacity="1" fill-rule="nonzero"/></g></g></g><g clip-path="url(#e9ee3e81f9)"><path fill="#343434" d="M 13.648438 13.011719 C 13.648438 13.011719 14.527344 12.929688 15.8125 12.894531 C 17.097656 12.855469 17.390625 12.84375 17.390625 12.84375 C 17.390625 12.84375 17.300781 14.613281 15.574219 14.679688 C 13.847656 14.75 13.667969 13.394531 13.648438 13.011719 Z M 13.648438 13.011719 " fill-opacity="1" fill-rule="nonzero"/></g><g clip-path="url(#4f5819365e)"><path fill="#ffffff" d="M 14.417969 13.003906 C 14.417969 13.003906 14.933594 12.953125 15.691406 12.933594 C 16.449219 12.910156 16.621094 12.902344 16.621094 12.902344 C 16.621094 12.902344 16.566406 13.945312 15.550781 13.984375 C 14.535156 14.023438 14.429688 13.226562 14.417969 13.003906 Z M 14.417969 13.003906 " fill-opacity="1" fill-rule="nonzero"/></g><g clip-path="url(#b436db3844)"><g clip-path="url(#6aea110ad7)"><g clip-path="url(#abd7b1aa1d)"><path fill="#ffffff" d="M 25.4375 12.011719 C 25.433594 12.007812 25.433594 12.003906 25.4375 12 C 25.453125 11.941406 25.535156 11.921875 25.953125 11.902344 C 26.382812 11.882812 26.554688 11.871094 26.554688 11.871094 C 26.554688 11.871094 26.578125 11.964844 26.410156 12.097656 C 26.238281 12.234375 25.835938 12.386719 25.605469 12.230469 C 25.46875 12.132812 25.441406 12.035156 25.4375 12.011719 Z M 25.4375 12.011719 " fill-opacity="1" fill-rule="nonzero"/></g></g></g><g clip-path="url(#24cb49a856)"><g clip-path="url(#3576ca6c9f)"><g clip-path="url(#61264ec479)"><path fill="#ffffff" d="M 26.230469 12.050781 C 26.230469 12.046875 26.230469 12.042969 26.230469 12.039062 C 26.230469 11.976562 26.304688 11.9375 26.703125 11.808594 C 27.113281 11.675781 27.277344 11.617188 27.277344 11.617188 C 27.277344 11.617188 27.324219 11.703125 27.195312 11.878906 C 27.0625 12.050781 26.71875 12.308594 26.453125 12.214844 C 26.296875 12.160156 26.242188 12.070312 26.230469 12.050781 Z M 26.230469 12.050781 " fill-opacity="1" fill-rule="nonzero"/></g></g></g><g clip-path="url(#f73cd1ab40)"><g clip-path="url(#9eeaef5600)"><g clip-path="url(#b7311c0e28)"><path fill="#343434" d="M 23.683594 4.980469 L 27.960938 4.695312 L 27.550781 3.332031 C 27.550781 3.332031 25.902344 3.40625 25.328125 3.480469 C 24.753906 3.554688 23.753906 3.75 23.753906 3.75 Z M 23.683594 4.980469 " fill-opacity="1" fill-rule="nonzero"/></g></g></g></g></g><g clip-path="url(#5518354eec)"><g transform="matrix(1, 0, 0, 1, 15, 13)"><g clip-path="url(#22970f8f77)"><g fill="#7680fe" fill-opacity="1"><g transform="translate(1.64097, 14.817202)"><g><path d="M 4.328125 -10.0625 L 4.296875 -8.671875 C 4.046875 -8.679688 3.796875 -8.6875 3.546875 -8.6875 C 3.296875 -8.695312 3.046875 -8.707031 2.796875 -8.71875 L 2.6875 0 L 1.296875 -0.015625 L 1.390625 -8.75 C 1.160156 -8.75 0.925781 -8.75 0.6875 -8.75 C 0.457031 -8.757812 0.226562 -8.765625 0 -8.765625 L 0 -10.15625 C 0.726562 -10.15625 1.453125 -10.144531 2.171875 -10.125 C 2.890625 -10.101562 3.609375 -10.082031 4.328125 -10.0625 Z M 4.328125 -10.0625 "/></g></g></g><g fill="#7680fe" fill-opacity="1"><g transform="translate(6.232472, 14.817202)"><g><path d="M 7.328125 -7.015625 C 7.628906 -5.992188 7.675781 -4.941406 7.46875 -3.859375 C 7.375 -3.328125 7.21875 -2.828125 7 -2.359375 C 6.882812 -2.097656 6.75 -1.851562 6.59375 -1.625 C 6.445312 -1.394531 6.273438 -1.171875 6.078125 -0.953125 C 5.972656 -0.859375 5.859375 -0.757812 5.734375 -0.65625 C 5.617188 -0.5625 5.492188 -0.476562 5.359375 -0.40625 C 5.078125 -0.238281 4.78125 -0.128906 4.46875 -0.078125 C 4.15625 -0.015625 3.84375 -0.0078125 3.53125 -0.0625 C 3.226562 -0.101562 2.9375 -0.191406 2.65625 -0.328125 C 2.394531 -0.453125 2.144531 -0.617188 1.90625 -0.828125 C 1.6875 -1.015625 1.488281 -1.226562 1.3125 -1.46875 C 1.144531 -1.695312 1.003906 -1.941406 0.890625 -2.203125 C 0.773438 -2.460938 0.679688 -2.722656 0.609375 -2.984375 C 0.546875 -3.242188 0.492188 -3.503906 0.453125 -3.765625 C 0.410156 -4.035156 0.390625 -4.304688 0.390625 -4.578125 C 0.390625 -4.835938 0.398438 -5.09375 0.421875 -5.34375 C 0.453125 -5.601562 0.484375 -5.863281 0.515625 -6.125 C 0.566406 -6.375 0.625 -6.625 0.6875 -6.875 C 0.75 -7.132812 0.832031 -7.390625 0.9375 -7.640625 C 1.050781 -7.890625 1.175781 -8.132812 1.3125 -8.375 C 1.457031 -8.613281 1.625 -8.835938 1.8125 -9.046875 L 2.84375 -8.125 C 2.601562 -7.851562 2.398438 -7.519531 2.234375 -7.125 C 2.160156 -6.925781 2.097656 -6.722656 2.046875 -6.515625 C 1.992188 -6.304688 1.945312 -6.097656 1.90625 -5.890625 C 1.820312 -5.453125 1.78125 -5.019531 1.78125 -4.59375 C 1.78125 -4.164062 1.84375 -3.753906 1.96875 -3.359375 C 2.070312 -2.953125 2.226562 -2.59375 2.4375 -2.28125 C 2.550781 -2.125 2.675781 -1.988281 2.8125 -1.875 C 2.957031 -1.757812 3.101562 -1.660156 3.25 -1.578125 C 3.582031 -1.421875 3.90625 -1.375 4.21875 -1.4375 C 4.519531 -1.5 4.804688 -1.671875 5.078125 -1.953125 C 5.335938 -2.203125 5.550781 -2.523438 5.71875 -2.921875 C 5.894531 -3.296875 6.023438 -3.695312 6.109375 -4.125 C 6.253906 -4.976562 6.207031 -5.816406 5.96875 -6.640625 C 5.957031 -6.691406 5.945312 -6.738281 5.9375 -6.78125 C 5.925781 -6.832031 5.910156 -6.882812 5.890625 -6.9375 L 5.765625 -7.21875 C 5.722656 -7.332031 5.679688 -7.425781 5.640625 -7.5 C 5.617188 -7.539062 5.59375 -7.582031 5.5625 -7.625 C 5.539062 -7.664062 5.519531 -7.707031 5.5 -7.75 C 5.382812 -7.90625 5.265625 -8.039062 5.140625 -8.15625 C 5.023438 -8.257812 4.894531 -8.34375 4.75 -8.40625 C 4.726562 -8.414062 4.707031 -8.421875 4.6875 -8.421875 C 4.675781 -8.429688 4.660156 -8.4375 4.640625 -8.4375 C 4.628906 -8.445312 4.613281 -8.453125 4.59375 -8.453125 C 4.570312 -8.460938 4.550781 -8.46875 4.53125 -8.46875 C 4.425781 -8.488281 4.332031 -8.503906 4.25 -8.515625 C 4.0625 -8.523438 3.875 -8.519531 3.6875 -8.5 C 3.507812 -8.46875 3.347656 -8.421875 3.203125 -8.359375 C 3.054688 -8.296875 2.9375 -8.21875 2.84375 -8.125 L 1.8125 -9.046875 C 1.925781 -9.179688 2.050781 -9.296875 2.1875 -9.390625 C 2.332031 -9.492188 2.476562 -9.578125 2.625 -9.640625 C 2.769531 -9.703125 2.914062 -9.753906 3.0625 -9.796875 C 3.207031 -9.835938 3.351562 -9.863281 3.5 -9.875 C 3.789062 -9.914062 4.082031 -9.921875 4.375 -9.890625 C 4.5 -9.878906 4.644531 -9.863281 4.8125 -9.84375 C 4.875 -9.832031 4.953125 -9.8125 5.046875 -9.78125 C 5.078125 -9.769531 5.113281 -9.753906 5.15625 -9.734375 C 5.195312 -9.722656 5.238281 -9.710938 5.28125 -9.703125 C 5.570312 -9.578125 5.835938 -9.410156 6.078125 -9.203125 C 6.285156 -9.003906 6.476562 -8.773438 6.65625 -8.515625 C 6.738281 -8.378906 6.8125 -8.257812 6.875 -8.15625 C 6.914062 -8.082031 6.945312 -8.015625 6.96875 -7.953125 C 7 -7.890625 7.023438 -7.832031 7.046875 -7.78125 L 7.140625 -7.578125 L 7.1875 -7.390625 C 7.21875 -7.335938 7.242188 -7.28125 7.265625 -7.21875 C 7.285156 -7.15625 7.304688 -7.085938 7.328125 -7.015625 Z M 7.328125 -7.015625 "/></g></g></g><g fill="#7680fe" fill-opacity="1"><g transform="translate(14.238549, 14.817202)"><g><path d="M 5.890625 -10.0625 C 5.910156 -9.519531 5.921875 -8.984375 5.921875 -8.453125 C 5.921875 -7.921875 5.921875 -7.390625 5.921875 -6.859375 C 5.921875 -6.328125 5.914062 -5.789062 5.90625 -5.25 C 5.90625 -4.71875 5.90625 -4.179688 5.90625 -3.640625 L 5.890625 -3.25 C 5.890625 -3.1875 5.890625 -3.117188 5.890625 -3.046875 C 5.890625 -2.984375 5.890625 -2.910156 5.890625 -2.828125 C 5.878906 -2.679688 5.867188 -2.535156 5.859375 -2.390625 C 5.847656 -2.242188 5.828125 -2.09375 5.796875 -1.9375 C 5.785156 -1.894531 5.773438 -1.851562 5.765625 -1.8125 C 5.753906 -1.78125 5.742188 -1.742188 5.734375 -1.703125 L 5.671875 -1.453125 C 5.660156 -1.410156 5.644531 -1.367188 5.625 -1.328125 C 5.601562 -1.296875 5.585938 -1.253906 5.578125 -1.203125 L 5.5 -1.09375 C 5.488281 -1.050781 5.472656 -1.007812 5.453125 -0.96875 L 5.375 -0.859375 L 5.296875 -0.734375 L 5.25 -0.6875 L 5.203125 -0.625 L 5.109375 -0.515625 C 5.085938 -0.492188 5.050781 -0.457031 5 -0.40625 L 4.953125 -0.359375 C 4.941406 -0.347656 4.914062 -0.332031 4.875 -0.3125 C 4.820312 -0.269531 4.769531 -0.234375 4.71875 -0.203125 C 4.675781 -0.171875 4.628906 -0.144531 4.578125 -0.125 C 4.492188 -0.09375 4.40625 -0.0625 4.3125 -0.03125 C 4.21875 0 4.128906 0.0234375 4.046875 0.046875 C 3.878906 0.078125 3.703125 0.0976562 3.515625 0.109375 C 3.347656 0.109375 3.175781 0.09375 3 0.0625 C 2.820312 0.03125 2.644531 -0.0195312 2.46875 -0.09375 C 2.269531 -0.15625 2.101562 -0.242188 1.96875 -0.359375 C 1.789062 -0.484375 1.644531 -0.632812 1.53125 -0.8125 C 1.40625 -0.988281 1.316406 -1.179688 1.265625 -1.390625 C 1.234375 -1.492188 1.210938 -1.59375 1.203125 -1.6875 C 1.191406 -1.78125 1.1875 -1.875 1.1875 -1.96875 L 2.59375 -1.96875 C 2.59375 -1.875 2.597656 -1.804688 2.609375 -1.765625 C 2.628906 -1.703125 2.648438 -1.644531 2.671875 -1.59375 C 2.710938 -1.5625 2.753906 -1.523438 2.796875 -1.484375 C 2.835938 -1.441406 2.898438 -1.40625 2.984375 -1.375 C 3.140625 -1.320312 3.3125 -1.296875 3.5 -1.296875 C 3.582031 -1.304688 3.671875 -1.316406 3.765625 -1.328125 C 3.847656 -1.335938 3.925781 -1.359375 4 -1.390625 C 4.03125 -1.410156 4.046875 -1.421875 4.046875 -1.421875 L 4.0625 -1.453125 L 4.09375 -1.484375 C 4.113281 -1.503906 4.128906 -1.519531 4.140625 -1.53125 L 4.21875 -1.609375 L 4.25 -1.671875 C 4.28125 -1.734375 4.3125 -1.8125 4.34375 -1.90625 C 4.375 -2 4.398438 -2.09375 4.421875 -2.1875 C 4.453125 -2.40625 4.46875 -2.632812 4.46875 -2.875 C 4.476562 -3.125 4.488281 -3.382812 4.5 -3.65625 C 4.5 -3.75 4.5 -3.835938 4.5 -3.921875 C 4.5 -4.003906 4.5 -4.085938 4.5 -4.171875 C 4.320312 -4.046875 4.132812 -3.941406 3.9375 -3.859375 C 3.632812 -3.742188 3.328125 -3.707031 3.015625 -3.75 C 2.828125 -3.769531 2.660156 -3.804688 2.515625 -3.859375 C 2.367188 -3.921875 2.234375 -4 2.109375 -4.09375 C 1.984375 -4.1875 1.867188 -4.28125 1.765625 -4.375 C 1.671875 -4.476562 1.582031 -4.582031 1.5 -4.6875 C 1.34375 -4.894531 1.207031 -5.113281 1.09375 -5.34375 C 0.988281 -5.570312 0.90625 -5.800781 0.84375 -6.03125 C 0.769531 -6.257812 0.710938 -6.488281 0.671875 -6.71875 C 0.640625 -6.957031 0.617188 -7.191406 0.609375 -7.421875 C 0.578125 -7.867188 0.566406 -8.304688 0.578125 -8.734375 C 0.597656 -9.160156 0.601562 -9.570312 0.59375 -9.96875 L 1.984375 -10 C 1.992188 -9.550781 1.992188 -9.117188 1.984375 -8.703125 C 1.972656 -8.296875 1.976562 -7.898438 2 -7.515625 C 2.007812 -7.328125 2.03125 -7.140625 2.0625 -6.953125 C 2.09375 -6.773438 2.128906 -6.601562 2.171875 -6.4375 C 2.285156 -6.09375 2.429688 -5.785156 2.609375 -5.515625 C 2.710938 -5.390625 2.8125 -5.296875 2.90625 -5.234375 C 2.945312 -5.203125 2.988281 -5.175781 3.03125 -5.15625 C 3.050781 -5.15625 3.070312 -5.148438 3.09375 -5.140625 C 3.113281 -5.140625 3.132812 -5.132812 3.15625 -5.125 C 3.257812 -5.113281 3.359375 -5.128906 3.453125 -5.171875 C 3.566406 -5.210938 3.675781 -5.28125 3.78125 -5.375 C 3.863281 -5.457031 3.953125 -5.5625 4.046875 -5.6875 C 4.109375 -5.8125 4.175781 -5.960938 4.25 -6.140625 C 4.375 -6.460938 4.460938 -6.804688 4.515625 -7.171875 C 4.515625 -7.660156 4.515625 -8.140625 4.515625 -8.609375 C 4.515625 -9.085938 4.503906 -9.5625 4.484375 -10.03125 Z M 5.890625 -10.0625 "/></g></g></g><g fill="#7680fe" fill-opacity="1"><g transform="translate(20.777088, 14.817202)"><g><path d="M 4.328125 -10.0625 L 4.296875 -8.671875 C 4.046875 -8.679688 3.796875 -8.6875 3.546875 -8.6875 C 3.296875 -8.695312 3.046875 -8.707031 2.796875 -8.71875 L 2.6875 0 L 1.296875 -0.015625 L 1.390625 -8.75 C 1.160156 -8.75 0.925781 -8.75 0.6875 -8.75 C 0.457031 -8.757812 0.226562 -8.765625 0 -8.765625 L 0 -10.15625 C 0.726562 -10.15625 1.453125 -10.144531 2.171875 -10.125 C 2.890625 -10.101562 3.609375 -10.082031 4.328125 -10.0625 Z M 4.328125 -10.0625 "/></g></g></g><g fill="#7680fe" fill-opacity="1"><g transform="translate(25.368591, 14.817202)"><g><path d="M 7.328125 -7.015625 C 7.628906 -5.992188 7.675781 -4.941406 7.46875 -3.859375 C 7.375 -3.328125 7.21875 -2.828125 7 -2.359375 C 6.882812 -2.097656 6.75 -1.851562 6.59375 -1.625 C 6.445312 -1.394531 6.273438 -1.171875 6.078125 -0.953125 C 5.972656 -0.859375 5.859375 -0.757812 5.734375 -0.65625 C 5.617188 -0.5625 5.492188 -0.476562 5.359375 -0.40625 C 5.078125 -0.238281 4.78125 -0.128906 4.46875 -0.078125 C 4.15625 -0.015625 3.84375 -0.0078125 3.53125 -0.0625 C 3.226562 -0.101562 2.9375 -0.191406 2.65625 -0.328125 C 2.394531 -0.453125 2.144531 -0.617188 1.90625 -0.828125 C 1.6875 -1.015625 1.488281 -1.226562 1.3125 -1.46875 C 1.144531 -1.695312 1.003906 -1.941406 0.890625 -2.203125 C 0.773438 -2.460938 0.679688 -2.722656 0.609375 -2.984375 C 0.546875 -3.242188 0.492188 -3.503906 0.453125 -3.765625 C 0.410156 -4.035156 0.390625 -4.304688 0.390625 -4.578125 C 0.390625 -4.835938 0.398438 -5.09375 0.421875 -5.34375 C 0.453125 -5.601562 0.484375 -5.863281 0.515625 -6.125 C 0.566406 -6.375 0.625 -6.625 0.6875 -6.875 C 0.75 -7.132812 0.832031 -7.390625 0.9375 -7.640625 C 1.050781 -7.890625 1.175781 -8.132812 1.3125 -8.375 C 1.457031 -8.613281 1.625 -8.835938 1.8125 -9.046875 L 2.84375 -8.125 C 2.601562 -7.851562 2.398438 -7.519531 2.234375 -7.125 C 2.160156 -6.925781 2.097656 -6.722656 2.046875 -6.515625 C 1.992188 -6.304688 1.945312 -6.097656 1.90625 -5.890625 C 1.820312 -5.453125 1.78125 -5.019531 1.78125 -4.59375 C 1.78125 -4.164062 1.84375 -3.753906 1.96875 -3.359375 C 2.070312 -2.953125 2.226562 -2.59375 2.4375 -2.28125 C 2.550781 -2.125 2.675781 -1.988281 2.8125 -1.875 C 2.957031 -1.757812 3.101562 -1.660156 3.25 -1.578125 C 3.582031 -1.421875 3.90625 -1.375 4.21875 -1.4375 C 4.519531 -1.5 4.804688 -1.671875 5.078125 -1.953125 C 5.335938 -2.203125 5.550781 -2.523438 5.71875 -2.921875 C 5.894531 -3.296875 6.023438 -3.695312 6.109375 -4.125 C 6.253906 -4.976562 6.207031 -5.816406 5.96875 -6.640625 C 5.957031 -6.691406 5.945312 -6.738281 5.9375 -6.78125 C 5.925781 -6.832031 5.910156 -6.882812 5.890625 -6.9375 L 5.765625 -7.21875 C 5.722656 -7.332031 5.679688 -7.425781 5.640625 -7.5 C 5.617188 -7.539062 5.59375 -7.582031 5.5625 -7.625 C 5.539062 -7.664062 5.519531 -7.707031 5.5 -7.75 C 5.382812 -7.90625 5.265625 -8.039062 5.140625 -8.15625 C 5.023438 -8.257812 4.894531 -8.34375 4.75 -8.40625 C 4.726562 -8.414062 4.707031 -8.421875 4.6875 -8.421875 C 4.675781 -8.429688 4.660156 -8.4375 4.640625 -8.4375 C 4.628906 -8.445312 4.613281 -8.453125 4.59375 -8.453125 C 4.570312 -8.460938 4.550781 -8.46875 4.53125 -8.46875 C 4.425781 -8.488281 4.332031 -8.503906 4.25 -8.515625 C 4.0625 -8.523438 3.875 -8.519531 3.6875 -8.5 C 3.507812 -8.46875 3.347656 -8.421875 3.203125 -8.359375 C 3.054688 -8.296875 2.9375 -8.21875 2.84375 -8.125 L 1.8125 -9.046875 C 1.925781 -9.179688 2.050781 -9.296875 2.1875 -9.390625 C 2.332031 -9.492188 2.476562 -9.578125 2.625 -9.640625 C 2.769531 -9.703125 2.914062 -9.753906 3.0625 -9.796875 C 3.207031 -9.835938 3.351562 -9.863281 3.5 -9.875 C 3.789062 -9.914062 4.082031 -9.921875 4.375 -9.890625 C 4.5 -9.878906 4.644531 -9.863281 4.8125 -9.84375 C 4.875 -9.832031 4.953125 -9.8125 5.046875 -9.78125 C 5.078125 -9.769531 5.113281 -9.753906 5.15625 -9.734375 C 5.195312 -9.722656 5.238281 -9.710938 5.28125 -9.703125 C 5.570312 -9.578125 5.835938 -9.410156 6.078125 -9.203125 C 6.285156 -9.003906 6.476562 -8.773438 6.65625 -8.515625 C 6.738281 -8.378906 6.8125 -8.257812 6.875 -8.15625 C 6.914062 -8.082031 6.945312 -8.015625 6.96875 -7.953125 C 7 -7.890625 7.023438 -7.832031 7.046875 -7.78125 L 7.140625 -7.578125 L 7.1875 -7.390625 C 7.21875 -7.335938 7.242188 -7.28125 7.265625 -7.21875 C 7.285156 -7.15625 7.304688 -7.085938 7.328125 -7.015625 Z M 7.328125 -7.015625 "/></g></g></g><g fill="#7680fe" fill-opacity="1"><g transform="translate(33.374667, 14.817202)"><g><path d="M 4.78125 -7.546875 C 4.8125 -7.335938 4.828125 -7.125 4.828125 -6.90625 C 4.835938 -6.46875 4.785156 -6.046875 4.671875 -5.640625 L 4.5625 -5.3125 L 4.484375 -5.15625 C 4.472656 -5.125 4.460938 -5.097656 4.453125 -5.078125 C 4.441406 -5.054688 4.429688 -5.03125 4.421875 -5 C 4.304688 -4.789062 4.175781 -4.601562 4.03125 -4.4375 C 3.875 -4.257812 3.707031 -4.101562 3.53125 -3.96875 C 3.363281 -3.832031 3.191406 -3.710938 3.015625 -3.609375 C 2.847656 -3.503906 2.675781 -3.410156 2.5 -3.328125 C 2.320312 -3.253906 2.144531 -3.191406 1.96875 -3.140625 C 1.96875 -2.617188 1.96875 -2.09375 1.96875 -1.5625 C 1.976562 -1.03125 1.988281 -0.503906 2 0.015625 L 0.609375 0.046875 C 0.578125 -1.679688 0.566406 -3.40625 0.578125 -5.125 C 0.585938 -6.84375 0.617188 -8.5625 0.671875 -10.28125 L 1.53125 -10.28125 C 1.957031 -10.320312 2.375 -10.265625 2.78125 -10.109375 C 3 -10.035156 3.207031 -9.929688 3.40625 -9.796875 C 3.59375 -9.671875 3.765625 -9.519531 3.921875 -9.34375 C 4.085938 -9.175781 4.226562 -9 4.34375 -8.8125 C 4.375 -8.75 4.398438 -8.691406 4.421875 -8.640625 C 4.453125 -8.597656 4.476562 -8.546875 4.5 -8.484375 C 4.519531 -8.429688 4.539062 -8.378906 4.5625 -8.328125 C 4.59375 -8.273438 4.617188 -8.222656 4.640625 -8.171875 C 4.660156 -8.117188 4.671875 -8.066406 4.671875 -8.015625 C 4.679688 -7.960938 4.695312 -7.910156 4.71875 -7.859375 C 4.726562 -7.804688 4.738281 -7.75 4.75 -7.6875 C 4.757812 -7.632812 4.769531 -7.585938 4.78125 -7.546875 Z M 3.328125 -6.015625 C 3.398438 -6.296875 3.429688 -6.585938 3.421875 -6.890625 C 3.421875 -7.054688 3.414062 -7.203125 3.40625 -7.328125 C 3.40625 -7.359375 3.398438 -7.390625 3.390625 -7.421875 C 3.378906 -7.460938 3.367188 -7.503906 3.359375 -7.546875 C 3.347656 -7.566406 3.335938 -7.59375 3.328125 -7.625 C 3.328125 -7.664062 3.316406 -7.703125 3.296875 -7.734375 C 3.285156 -7.765625 3.273438 -7.796875 3.265625 -7.828125 C 3.253906 -7.859375 3.242188 -7.890625 3.234375 -7.921875 C 3.222656 -7.953125 3.207031 -7.976562 3.1875 -8 C 3.175781 -8.03125 3.160156 -8.054688 3.140625 -8.078125 C 3.078125 -8.191406 3.003906 -8.296875 2.921875 -8.390625 C 2.828125 -8.484375 2.722656 -8.566406 2.609375 -8.640625 C 2.515625 -8.710938 2.410156 -8.769531 2.296875 -8.8125 C 2.210938 -8.84375 2.125 -8.863281 2.03125 -8.875 C 2.007812 -8.164062 1.992188 -7.457031 1.984375 -6.75 C 1.972656 -6.050781 1.96875 -5.351562 1.96875 -4.65625 C 2.175781 -4.738281 2.363281 -4.835938 2.53125 -4.953125 C 2.707031 -5.066406 2.851562 -5.195312 2.96875 -5.34375 C 3.050781 -5.445312 3.125 -5.550781 3.1875 -5.65625 C 3.195312 -5.675781 3.203125 -5.691406 3.203125 -5.703125 C 3.210938 -5.710938 3.21875 -5.722656 3.21875 -5.734375 L 3.28125 -5.921875 Z M 3.328125 -6.015625 "/></g></g></g><g fill="#7680fe" fill-opacity="1"><g transform="translate(38.823452, 14.817202)"><g><path d="M 2.9375 -8.59375 L 2.828125 -1.546875 C 3.003906 -1.546875 3.175781 -1.539062 3.34375 -1.53125 C 3.519531 -1.53125 3.6875 -1.53125 3.84375 -1.53125 L 3.84375 -0.125 C 3.289062 -0.125 2.753906 -0.128906 2.234375 -0.140625 C 1.710938 -0.148438 1.195312 -0.140625 0.6875 -0.109375 L 0.578125 -1.484375 C 0.722656 -1.503906 0.863281 -1.515625 1 -1.515625 C 1.144531 -1.523438 1.289062 -1.53125 1.4375 -1.53125 L 1.546875 -8.59375 C 1.398438 -8.582031 1.253906 -8.570312 1.109375 -8.5625 C 0.972656 -8.5625 0.832031 -8.554688 0.6875 -8.546875 L 0.578125 -9.9375 C 1.140625 -9.976562 1.691406 -9.992188 2.234375 -9.984375 C 2.773438 -9.984375 3.3125 -9.976562 3.84375 -9.96875 L 3.84375 -8.578125 C 3.695312 -8.578125 3.546875 -8.578125 3.390625 -8.578125 C 3.234375 -8.585938 3.082031 -8.59375 2.9375 -8.59375 Z M 2.9375 -8.59375 "/></g></g></g><g fill="#7680fe" fill-opacity="1"><g transform="translate(43.269657, 14.817202)"><g><path d="M 6.6875 0.1875 L 5.3125 0.4375 L 4.703125 -2.84375 C 4.535156 -2.851562 4.359375 -2.851562 4.171875 -2.84375 C 3.984375 -2.84375 3.796875 -2.84375 3.609375 -2.84375 C 3.421875 -2.84375 3.226562 -2.84375 3.03125 -2.84375 C 2.84375 -2.84375 2.648438 -2.847656 2.453125 -2.859375 L 1.703125 -0.421875 L 0.359375 -0.828125 L 3.390625 -10.578125 L 4.734375 -10.484375 Z M 3.59375 -4.25 C 3.726562 -4.25 3.867188 -4.25 4.015625 -4.25 C 4.160156 -4.25 4.3125 -4.25 4.46875 -4.25 L 3.875 -7.4375 L 2.875 -4.25 C 3.101562 -4.25 3.34375 -4.25 3.59375 -4.25 Z M 3.59375 -4.25 "/></g></g></g></g></g></g></svg>